<?xml version="1.0" encoding="UTF-8"?>
<svg version="1.1" viewBox="0 0 2000 2000" width="1280" height="1280" xmlns="http://www.w3.org/2000/svg">
<path transform="translate(1022,501)" d="m0 0h41l25 1 48 5 27 4 25 6 20 6 9 7 8 10 6 14 4 13 15 75 9 53 5 36 6 47 7 41 8 44 10 48 7 34 8 37 10 52 6 30 5 39 5 53 2 42v46l-4 65-2 36-3 24-4 18-8 20-8 14-11 13-11 12-20 13-12 5-21 7-26 7-32 5-34 2-30-2-17-4-7-1h-39l-28-2-22-2-64-4-59-5-31-3-24-4-24-7-18-6-15-9-11-9-9-9-8-11-8-16-6-16-5-22-1-6-2-36-3-31-5-23-12-37-2-9v-12l4-17 10-25 6-18 6-27v-8l-3-6-5-4-16-4-19-6-6-4-5-6-2-7 2-16 5-15 7-11 9-10 10-10 10-8 14-11 10-9 12-11 9-13 9-25 6-18 8-20 7-18 12-26 10-25 5-16 8-38 1-7v-8l-7-6-13-7-12-12-7-11-3-12v-9l3-17 12-25 8-16 20-36 10-15 12-17 8-10 7-11 10-14 8-11 11-7 12-5 18-3 10-1 52-3 24-2z" fill="#706F66"/>
<path transform="translate(1170,529)" d="m0 0 10 1v2l6 2 7 6 5 2 4 7 1 4 6 1v3l2 1-1-7 2-2v-5l-3-1-1-6 1-3 4-1 1-2v2l5-1 7 10 6 15 4 15 14 70 9 53 5 36 6 47 7 41 8 44 10 48 7 34 8 37 10 52 6 30 5 39 5 53 2 42v46l-4 65-2 36-3 24-4 18-8 20-8 14-11 13-11 12-20 13-12 5-21 7-26 7-32 5-34 2-30-2-17-4-7-1h-39l-28-2-22-2-64-4-59-5-31-3-24-4-24-7-18-6-15-9-11-9-9-9-8-11-8-16-6-16-5-22-1-6-2-36-3-31-5-23-12-37-2-9v-12l4-17 10-25 6-18 6-27v-8l-3-6-5-4-16-4-19-6-6-4-5-6-2-7 2-16 5-7v-2l13 1 19 4 13 2 40 10 13 2 12 4 24 5 29 7 2 1 16 1 19 3 25 1 3 1 19 1 28 1 8 2 18 2 14 4 1 4-5 7-6 3-7 5-10 4-3 6-10 6-10 7-11 7-19 8-12 4-10 3-35 5-20 2-25 2-10 1-27 3-9 2-24 5-12 3-6 1-8 5-1 4 4 1v2l29 3 4 1 26 2 12 3 60 6 17 2 16 1 15 5 4 3 9 4h14l6 4h7l9-1 1 1 7 1 4 2 8 2 8 5 3 9 1 7-2 7 4 4v2h5l2 3v4l-10 4-4 3-4 13-9 2-13 2-5 2-2 5-8 5h-14l-1 5 1 4v10l-2 3-11 4-3 2v12l-2 5-3 4-5 1h-5l-2 3 1 5 3 6v2h2l1 4-3 9 1 5 7 2 7 1 9 3 17 2 17 3 9 1h5l1-3 5-1h21l24-4 13-1 11-4 22-3 1-1 12-1 8-6 6-1v-2l4-1 2-4 10-4 9-2v-2l4-1 2-8 7-5-1-8-6-2v-17l-2-5 2-3v-7l-3-3-4-3 1-7 2-11v-8l4-7v-6l-1-5 7-5 7-1 1-7 3-7v-7l-5-8-6-3-2-2v-11l-7-3-1-4 7-13 1-7 8-15 3-5 1-5-5-3-2 3h-5v-13l3-4 8-3 6-1 2-4-1-4-5-5 1-5 7-8v-5l-2-5 2-4 5-3 4-2 2-4h11l3 1h17l14-2 6-3 9-3 6 1 1 3 9-1 7-5h2l2-4 5-12v-11l-1-3v-14l3-9-1-12v-20l1-2 15-5-1-8 3-7 1-9-1-5 4-4v-8l8-8 6-3 7-3 3-14 1-2-3-10-2-8-1-1v-7h-2l-4-19-3-9-4-22-2-5-5-11v-2h-2l-4-4-6-1-5 5-4 2-5-5-1-10-3-5v-2h-2l-5-10v-6l2-2 5-2v-3l-6 1-5 4-2 1h-10l-1-1v-5l3-6v-7l-4-12 4-4 7-4 1-7v-6l-4-5-5-5-6-3v-2l-7-2-3-7v-7l-3-5-6-9-8-10-5-6-9-2-6-8-2-11 1-7 3-5 2-9 6-7 6-10 1-16v-9l-1-2v-17l1-10-2-10-4-7-1-6 2-3z" fill="#565550"/>
<path transform="translate(1092,751)" d="m0 0 9 2 9 9 4 8 3 8 5 3 3 5v6l-4 7v5l10 7 2 4-1 6 3 9v16l-2 5v24l8-2 7-1 5-4 6-2 7-2 6 1 2 1 20 1 6 2 9 1 5 3 10 9 5 7 5 5-1 5-3 6-7 2-7-2-11 1-8 2-1 3 1 13 1 7-2 4h-2l-1 9v11l3 8 2 8 3 3v3l-5 3-3 5-11 6-3 4v7l1 9-2 5-9 10-5 1-5-2-5-7-5-16v-11l-3-9-3-6-1-1-1-7v-11l2-8-9-1-4-8-1-1h-6l-3 2v5l8 4-1 6-3 5-1 5-5 4v6l-6 5-3 5 1 5 3 3-1 9-2 3 1 4 3 1-1 5-2 9-5 4-4-1v2l6 2 4 6v5l-4 5 1 8-3 2-1 3 6 2 3 3v6l-4 5-4 2-3 9-1 10 1 12-3 7v2l9 3 4 4-4 10-6 4-4 5-11 2 1 5-2 5-2 1v4l-1 3-7 3-4 1-4 3 1 6 2 4h-2l-1 5-3 5h-3l-2 5-6 2-5 1-3 3-9 4v7l-4 4v3l5 3 1 2v6l-4 6-12 4h-9l-7-3-5-2-5-5-12-7-11-2v2l-5 1-12-1-7-3-15-1-11 2-3-2h-13l-9-2-3-3-9-3-18-3-20-1-28-3-38-3-20-5-17-1-15-3-12-3v-2l-2-1h2l1-3 9-2 6-3 23-5 22-3 19-3 8-1h22l16-2 21-2 22-5 11-3 20-9 8-4h2l1-3 10-6 9-6 6-2v-2h3l2-4 4-2 2-2 7-4 13-2 4-4 3-1v-5h-2l-1-6-1-4-3-1v-2l-6-1-6 2-9-3v-2l-4-1-6 1-7-3-8-2-14 2-14 3-15-1-6-1-31-2-21-2-13-2-11-4-10-2-7-3-17-4-11-5-23-2-4-2-10-2-9-3-11-2-8-2-6-1v-2l-8-1-3-2-5-1-4-2-2-3h-6l4-7 9-10 10-10 10-8 14-11 10-9 12-11 9-13 9-25 6-18 8-20 7-18 12-26 10-25 2-3 1 6 2 1v2l18 2h9l16-5 5 1v-2l6-3 5-4h2v-2h2l2-4 7-6 10-2 6 1 11 1 13-2 11 1 4 2 5 8 3 9 4 8 5 2h2v-2h2v-2l5-2 6-1h8l5 2h3l3-6h2l1-5 3-3h3v-2l7-3 3-4h2l2-5 5-5 7-6h2l1-3h2l1-2 5-5 1-2h2l1-3 11-7 6-1 5-3 4-4 8-4z" fill="#86857D"/>
<path transform="translate(1293,1100)" d="m0 0 8 6 1 3h2l1 2 5 3 6 9v3l4 1 6-1v2l3-1 1 3-1 2h2l-1 8 1 2-1 8 1 10-1 3-1 14-1 8v7l-3 9-1 14-3 7v10l-1 6 1 6-4 8h-6v3l3 3 1 2v12l2 4v10h2l3-15 2-2h4l3 7 1 6v44l-1 29-4 24-5 16-7 16-7 11-9 11-12 13-20 13-12 5-21 7-26 7-32 5-34 2-30-2-17-4-7-1h-39l-28-2-22-2-64-4-59-5-31-3-24-4-24-7-18-6-15-9-11-9-9-9-8-11-8-16-6-16-5-22-1-6-2-36-3-31-5-23-12-37-2-9v-12l5-4v2l24 2 29 2 16 2 12 3 31 3 5 1 29 2 9 1 2 1 20 2v2l5 1 11 6 12 5 10 1 4 2 9 1 3 5-1 3-6 1v2l-7 2-2 11 5 9 3 4 2 7v7l-10 2-6 4-5 10-4 2v2l-10 2-8 5-4 9-3 4-3 6-5 5-8 6-4 2-1 2h-2v2l-7 4h-6l-3-2v-2l-9-3-10-1-6 2-5 2-8 2-8 5-3 4-12-1-3-2-3-6-6-5-12-4h-13l-1 1-1 12 1 5 1 8 2 5v3l7 1 5 5 8 3v2l4 1 8 3h7l7 3 15 3 9 2 13 1 7 1 9 3 19 3 11 3 9 3 2 1 18 2h18l17 3 17 1h39l16-2 13 1 13-2 17-1 17-2 10-4 4-1v-2l18-5 13-4 6-3 12-2 10-5 22-4 7-2 14-5 7-3 10-6 9-1 14-8h2v-2l5-5 9-4 7-4 3-22 3-6 2-2 13-3h15l3 2 5-1v-9l-2-5-3-9 3-3 2-1v-7l-4-4-5-1-5 5-4 3-8-5h-6l-8 4h-3l-1-4v-10l1-12-3-5-2-12-4-9-11-4-6-8-4-5 2-5 2-3-1-9-5-5-9-3-8-4-14-2-6-4v-2l-4-2-12-2-2 4-3 3-4-1-1-5 4-6 3-2 4-9 5-8 3-9 3-10 3-7 1-7 3-4 13-2 7-1 9 4 10 3h45l10-4h6v-2l6-3 7-2z" fill="#3E3D39"/>
<path transform="translate(920,811)" d="m0 0 5 2 3 5v44l-4 8 1 15 1 7v13l-4 11-3 10-6 10-6 12-1 4 4 8 2 9 6 8 8-1 12-2 3 2h8l7-3 5-6 3 1v2h2l3 3v2h10l13-5 13-1 5-2h8l2 2v9l-5 7-2 8-1 1v7l1 5-3 14-6 7 1 5 1 6-5 4-6 3-10-2-1-3-6-2v2l-1 1 6 2-2 1-7 1-1 5-2 5-10-1-3-3-5-3-1-5 3-3-1-4-4-2h-7l-15 3h-2l3 7v7l-6 11h-2v3h-2v12l-3 4h-7l-4-2-6 2-10-2-32-2-24-2-51-17-8-4-19-1-9-3-8-2-14-5-7-2v-2l-9-1-5-3-6-2-5-3-5-1v-2l-3-1v-5l-6 3 2-4 15-15 10-8 14-11 10-9 12-11 9-13 9-25 6-18 8-20 7-18 12-26 3-7 2 4 5-1 6-2 8-1h14l7-1 10-1 1 2-11 3 7 4v3l5 5 4 3h9l8-4 3-1v-2h2l1-3 5-5 6-7 8-7 10-11 4-4z" fill="#9A988E"/>
<path transform="translate(1264,1355)" d="m0 0h15l7 1 1 1 14-1h14l3 3v4h2l1 2 2 19-2 10-2 9-10 18-11 13-11 12-20 13-12 5-21 7-26 7-32 5-34 2-30-2-17-4-7-1h-39l-28-2-22-2-64-4-59-5-31-3-24-4-24-7-18-6-15-9-11-9-9-9-8-11-8-16-4-10 1-6 2 1 2 4 8 8v2h2l3 3 4 2 3 3 7 3 19 3 9 5h6l4-2 33 4 6 2 8 1 18 2 19 3 4 1h28l16 4 39 2h18l34 2 2-1 31-3 17-5 6-3 10-2 13-2 18-4 18-6 8-4 16-3 7-1 13-2 17-4 5-2 9-2 16-8 4-3 7-3 10-5h2v-2l9-4z" fill="#262625"/>
<path transform="translate(1022,501)" d="m0 0h41l25 1 1 2h-5l-2 4-4 1v2l-3 3-3 8h-2v2l-7 5-1 2-1 9-3 5h-2l-1 9 3 9 1 5-3 2h-7l-4-1v5l5 4v6l-6 4-3 7 2 4-1 6-5 10-8 9-14 7-1 4h-2v4h-2l-2 5-2 1-3 14-6 7-5 2-3 2-12 2-10-2-16 1-8-2-6-4h-25l-10 2h-10l-8 1-12 6-12 1-7 1-4 1-7 1-12 3-12-3-16-3-7-6v-2l-7-1-6 3 2-6 12-25 8-13 10-19 13-20 12-17 8-10 7-11 10-14 8-11 11-7 12-5 18-3 10-1 52-3 24-2z" fill="#B5B3A1"/>
<path transform="translate(903,693)" d="m0 0h13l10 1h11l18 2 3 1 11 1 28 6 5 2 7 2 6 2 16 2 6 2 9 2 23 2 15 6 22 5 4 3-2 4-9 3-16 3-28 11-6 3h-2v2l-12 6-10 7h-2v2l-20 11-12 5-11 5-11 2h-17l-13-6-8-3-11-1-23 1-9 2-11 6-11 7-5 2-10 1h-19l-17 1-6 1-1-7 7-33 1-7v-8l-7-6-13-7-12-12-7-11-1-3v-14l9-2 4 1 3-1 14 1h23l12-1h21l22-1z" fill="#262625"/>
<path transform="translate(679,1049)" d="m0 0 24 4 19 3 26 7 22 4 14 3 32 6 15 4 2 1 18 1 12 3 5 1h22l3 1 42 3 31 3 6 3 1 7-8 6-12 7-8 9-24 15-7 5-25 8-22 4-52 5-36 4-27 4-21 4-18 2-1 1-12 2-1-5 10-25 6-22 3-15v-8l-3-6-5-4-16-4-19-6-6-4-5-6-2-7 1-6 5-10 10-1z" fill="#262625"/>
<path transform="translate(695,1200)" d="m0 0h10l9 1h11l16 2 16 1 10 4 4 2 11 1h13l1 3-2 3 1 8 7 6 8 4 3 7 1 5 3 1v2l4 2 6 6 3 6v2l12 3 7-1 4-3 1-5-1-7 4-2 6-1 7-6 1-2v-8l-5-3-18 1-5 2h-5l-2-3v-7l6-9h9l17 4 15 6 11 7 11 2 2 3-1 7h-2l-3 10-2 11-3 5-4 19-3 3-9 3-3 4h-2v2l-3 3-3 6h-2l-2 6h-2l-2 5-6 10-11 6h-6l-5-5-2-3-10-2h-7l-8 3-13 3-7-1-10-4-7-4-5-3-10-1-8-1-10-4-11-1-2 4-4 9h-3l-2-16-3-31-5-23-12-37-2-9 1-10z" fill="#262625"/>
<path transform="translate(1089,503)" d="m0 0h11l44 5-1 2-6 1v-2h-2v2l-8 4-4 3h-2l-1 10h-4l-2 5h2v-3l2 1-2 5-3 1-1 5 1 6-1 10v12l1 2v12l-4 3-2 9h2l1-3 4-4v3l-1 11-3 4v10l-1 10-8 6h-2l-2 7-4 5 1 13-4 3-6 3-9 1-22-1-2 6-3 3-1 9-1 11 1 2-2 2-12 2-4 1-9 1-6-2v-2l-15-2-15-4-7-1-5-1-16-1-7-1-13-2h-5v-2l-6 1-13-2h-6l-5 2-13 1-16 3-19 1-18-1-10 2h-11l-6-1-18-2-4-1-5 1-3-1-2 6-1-4 3-12 3-7 7-4 5 1 5 5 4 3 16 3 12 3 12-3 9-1 9-2 12-1 12-6 11-1h10l10-2h22l8 5 7 1 15-1 11 2 12-2 6-4 5-5 2-4 2-11 3-1 2-5h2v-4h2l1-5 14-7 9-11 4-10-1-6-1-2 4-7 4-3h2l-1-6-5-4v-5l3-1 2 1h7l2-2-3-12-1-1v-6l2-3h2l2-5 1-9 5-5 4-2v-2h2l3-10 3-1v-2l5-3 1-2z" fill="#86857D"/>
<path transform="translate(1071,760)" d="m0 0 4 1 5 2 2 9 7 8 6 6 2 8v11l4 13 3 2v2h2l2 6 5 2 2 2v11l-2 5-6 3-4 3-4 2v13l-3 7-2 2-2 7-4 6-5 2-2 4-2 2h-5l5 5-1 7-4 6-3 1-4-1 1 9-2 3h-6l-1-2h-7l-9 4-3 10-7 2-5 5-4-2-1-3v-6h-9l1 6 3 7 2 5-1 5-5 4-3-2-2-5-14-6-4-4-5-3-3-6-1-9 7-9-1-3 1-13 2-10 6-5 1-7-6-3-2-5 5-10-1-10 10-18 3-8 2-12 2-7 6-9 3-5 3-4h2l2-4 5-6 7-6h2v-2l5-3 12-4 5-4z" fill="#99978D"/>
<path transform="translate(823,899)" d="m0 0h9l1 5-8 11-7 7-4 1v2l-8 6-7 8-8 8-7 4-3 3-3 2-5 9v4l-3 3-1 6-2 4-2 2-5 8-1 3 6 3 16 1h12l8 4v2l10 3h9l5-2 6-1h11l9 3 10 5 1 2 4 2 11 5 6 3 2 2h10l2 4h-2l5 9-1 7-4 3-12 2v2l-9 3-2 5 4 4 4 1 2-1 1-4h2l1-2 7 1 3 5 2 6-1 2h-7l-5-3-6 4h-6l-5-2h-16l-8-2v-4l6-3 1-6-5-1-6 3-4 5-2 5-7-1v-2l-3-1-2-4-13-2-22-9-9-3h-24l-7-4-13-8-9-4-16-6-8-5-3-7 3-9 1-5 8-7 2 3-6 3-1 4 3-1 1-2 6-2 4-3 4-2 1-2 3-1 1-3 3-1 1-3 3-1 1-2 6-1v-2l6-4 6-5 7-10 5-5 2-11 4-5 6-5h2l1-3 6-5 5-6h2l2-4 8-4 13-7z" fill="#AAA89C"/>
<path transform="translate(1283,1108)" d="m0 0 10 2 5 3 2 6h2l3 12 5 5 9 7-2 14-1 2v11l-2 6-1 17-1 2h-8l-4 6-2 6-6 5-9 15-3 3-6-1-5-5-3-6-4-5h-6l-2 2-5-1-6-8-5-6v-2l-5-2-3-1-6-9v-2l-4-2v-2h-2l-1-2-9-3-4-5-5-4-2-4-6-5-7-13-8-7-1-1 1-7 5-13 6-4h11l4 2 8 2 1 1h7l5-1h37l8-3 8-1z" fill="#262625"/>
<path transform="translate(953,1136)" d="m0 0 5 1 12 5 5-2h4l1-2 18-1 6 2-1 8-5 6-1 3 3-1 2 2-10 9v7l3 1-1 5h-2l-1 2-4 4-5 2-13 1-3 1-1 3 4 2 1 5v9l-7 4h-3v-2l-4-2-1-1-1-8-9-2v3l-10 4-7 1h-12l-3 1h-40l-17-1h-9l-18-2-16-1h-11l-18-2-9-2-14-5-14-1-5-2v-4l5-2 10-1 13-2 13-3 8-3 9-2 19-1 8 2 10-1h15l10 1 13-2 13-3 16-4 15-8 16-8 3-3 7-2 2-5z" fill="#B5B3A1"/>
<path transform="translate(1009,1100)" d="m0 0h5l5 7v2l7-1 5-5 9-2 1-1 7 1 6 3 3 4 5 3 1 4-1 3-2 1 1 4 5 3 1 4-3 12-4 7-9 2-8 5-5 6-7 1 1 13-2 3v8l-3 2-12 2-2 2 2 4v14l-3 6-5 2h-5l-2-4-9-3-4-4-4 4-15 5-5 3-10-2-3-3v-2l-14 1-22 3h-9l-9-5-14-2-38-3-4-1-45-2-15-2-12-3v-2l-25-2-12-4v-6l14-5 16-3 14-1 15-4 22-3h10l9 1 16-2 16 1 25-5 12-3 13-7 10-4 10-6 3-1 1-3 6-1 1-4 5-4 11-2 3-3 5-4 3-2 1-3 6-2 1 1v5l5-2 8-5 1-3 7-4 4-4zm-56 36-6 3-2 5-7 2-4 4-23 11-9 5-14 3-13 3-14 2-9-1h-15l-10 1-8-2-19 1-16 4-9 3-17 3h-7l-7 2-2 1v4l5 2 14 1 17 6 12 2 12 1h19l21 2 9 1h12l10 1h40l7-1h10l11-3 4-2v-3l9 2 1 8 3 3h2v2l6-1 4-3v-12l-3-4h-2l1-3 3-1 14-1 9-6v-2l2-1 1-4-3-1v-7l10-9-3-2-2 1 3-6 3-3 1-8-7-2-18 1v2l-6 1-3 1-12-5z" fill="#9A988E"/>
<path transform="translate(1395,231)" d="m0 0h19l12 4 9 7 11 10 7 11 5 13 1 4v14l-5 16-6 11-8 10-9 10-14 12-9 7-17 13-14 12-8 8-9 16-4 11-1 14-3 8-3 1-5-4-1-6 4-17 5-12 6-11 14-19 10-11 8-10 11-14 8-12 14-28 4-12 1-6v-18l-3-9-4-5-8-5-7-2h-11l-10 4-10 9-7 10-8 14-5 12-3 11v17l2 12-1 9-4 4-3 1h-8l-6-3-8-8-5-11-1-4v-7l4-18 6-14 9-14 9-10 13-9 15-9 13-5z" fill="#403F3B"/>
<path transform="translate(1089,503)" d="m0 0h11l9 1 2 2-8 3-5 1-1 5-4 10-3 6-8 7v7l2 3v5l-7 4-1 4 8 11 4 7 1 9-4 6-2 6-15 3-3 2v7l1 9-5 5-9 2v2h-2l-1 5-7 4-9 3-2 5v8l-5 11 3 5-3 3-7 1-6 4-2-1-1 4-7 4h-7l-5-3-7-1h-6l-2-2-1 1h-21l-8 1-10-2-21-3-11 1-5 2h-16l-5 2-16 4h-17l-1-1h-9l-11 2-28-2-5-1-11-2-2 4-2 6-1-4 3-12 3-7 7-4 5 1 5 5 4 3 16 3 12 3 12-3 9-1 9-2 12-1 12-6 11-1h10l10-2h22l8 5 7 1 15-1 11 2 12-2 6-4 5-5 2-4 2-11 3-1 2-5h2v-4h2l1-5 14-7 9-11 4-10-1-6-1-2 4-7 4-3h2l-1-6-5-4v-5l3-1 2 1h7l2-2-3-12-1-1v-6l2-3h2l2-5 1-9 5-5 4-2v-2h2l3-10 3-1v-2l5-3 1-2z" fill="#99978D"/>
<path transform="translate(912,843)" d="m0 0 3 3-3 12-3 5-5 13-3 5-4 10-3 5-4 13-2 9v18l-1 11-3 5h-3l-2 5-2 10-3 9-2-1 2-9-1-1-1 5-5 6-7 7h-8l-7 3h-5l-1 2h-11l-17-2-8-3-4-3-1-8v-17l2-4 6-5 2-5 5-9 11-8 5-5 3-1 2-4 3-4h2l3-6h2v-2l5-4h2l1-3 16-11 7-10 7-6h2v-2l4-4h2l2-5 9-8 6-4z" fill="#86857D"/>
<path transform="translate(718 1e3)" d="m0 0h7l21 6 21-1 17 1 15 2 11 5 18 7 12 3 1 1h17l7-1 11 4 14 8 2-2 4 2 2 7-3 4-12 2v2l-9 3-2 5 4 4 4 1 2-1 1-4h2l1-2 7 1 3 5 2 6-1 2h-7l-5-3-6 4h-6l-5-2h-16l-8-2v-4l6-3 1-6-5-1-6 3-4 5-2 5-7-1-4-9-14-2 4-2h2v2h5l1-3 10 3 5-3 5-5 4-2h6l-4-1-9 1-8-2-2-1-1 3 5 1 2 1v5l-6 1-3-3-17-2-17-7-9-4-24-3-10-4-4-2-20-4-11-6-1-4-4-2-1-4 5-5z" fill="#B5B3A1"/>
<path transform="translate(1058,772)" d="m0 0h9l4 4 1 3 7 4 9 11-1 11 2 3-1 13-2 5-4 1v6l7 6 2 7-5 6-2 2v2l7 1 3 4-1 5-8 6h-6l-3-4-4-1 1 5-2 2-19 3-10-4-2-6-2-1v-2h-2l-4-6-7-2 2-12 2-5 2-7 3-4 4-2 1-5-6-4-5-10v-10l7-9 10-10 7-4z" fill="#B5B3A1"/>
<path transform="translate(907,687)" d="m0 0 16 1 18 1 30 4 8 2 10 2 16 3 4 1v2l5 1 24 1 10 4h10l8-5 8-3 6 1 3 5v2h2l3 5 12 5 12 3 5 2 9 1 1 5-7 8-11 4-24 4-2-1v2l-7 2-16 6-9 5-13 7-5 3-3 3-8 7-10 8-7 3-7 6-4 2-1 2-6 3-5 4-4 1-16 1h-10l-6-3v-2l-4-2-10-7-12-2-25 1-11 2-9 5h-2l-2 4-8 7-4 2-15 3-10 1-18-3-7-1-3-1 1-9 2-1 1 2 5-1 18-1h18l12-1 16-10 9-5 11-2 25-1 9 2 13 5 6 3h17l12-2 5-3 13-5 22-12h2v-2l12-8 9-5h3v-2l8-4 31-12 16-3 7-3v-2l-6-3-19-4-15-6-23-2-15-4-16-2-7-3-9-2-12-3-18-4-11-1-12-2-13-1h-9l-11-1h-10l-21 3-20 1h-22l-11 1h-28l-9-1-2-1-1 2-7-1-6 1v11h-1v-13l2-5 14-1 1 1h18l6 1h11l2-1h47z" fill="#565550"/>
<path transform="translate(953,1136)" d="m0 0 5 1 12 5 5-2h4l1-2 18-1 6 2-1 8-5 6-1 3 3-1 2 2-10 9v7l3 1-1 5h-2l-1 2-4 4-5 2-13 1-3 1-1 3 4 2 1 5v9l-7 4h-3v-2l-4-2-1-1-1-8-9-2v3l-10 4-7 1h-12l-3 1h-40l4-2 3 1v-2l9-1 18-4h14l12-1 8-4 1-3h2l1-5 4-6 9-5 5-4 1-2h2l-1-4-7 2-2-2-1-9-4-3h-8l-10 4-14 5-11 6-8 4-23 5-7 2-2-2h-5l-1-2 13-2 13-3 16-4 15-8 16-8 3-3 7-2 2-5z" fill="#AAA89C"/>
<path transform="translate(676,1031)" d="m0 0 4 2 1 2 5 2 4 1 10 3v2h8l16 4 9 2 5 2 9 2 1 1 23 2 11 5 17 4 7 3 16 4 10 3 23 2 16 2 21 1 16 2 11-1 19-4 9 1 5 3 7 1 4-1 3 2v2l6 1 5 1 4-2 4 1 5 4 3 8-1 2h2l1 5-4 1-2 4-2 1-13 2-14 9-1 2h-3v2l-11 6-8 6-6 3-3 3-12 6-16 7-16 4-17 4-32 3-8 1h-19l-23 3-17 3-20 3-15 4-3 2-9 2-1 5 9 1 11 3 7 1 17 1 20 5 15 2v1h-10l-15-2-6-2-26-2-21-3-10-1-7-4 2-5 8-5 15-3 17-4 17-3 5-1 24-3 10-1 27-2 32-4 21-3 10-3 20-7 16-8 11-8 7-4 6-4h2l2-6 14-7 5-4 5-1 4-8v-3l-20-4-16-2-4-1-33-1-14-1-5-1-23-1-28-4h-7l-18-5-31-7-13-3-9-3-14-2-19-5-8-2-14-3-17-3-9-2h-7l-6-2 1 3-5 4 3-10 3-7z" fill="#706F66"/>
<path transform="translate(1082,503)" d="m0 0h7v1h-5l-2 4-4 1v2l-3 3-3 8h-2v2l-7 5-1 2-1 9-3 5h-2l-1 9 3 9 1 5-3 2h-7l-4-1v5l5 4v6l-6 4-3 7 2 4-1 6-5 10-8 9-14 7-1 4h-2v4h-2l-2 5-2 1-3 14-6 7-5 2-3 2-12 2-10-2-16 1-8-2-6-4h-25l-8 2-2-2 5-2 15-3 17 1 5 4h2l-5-3 1-3-7-1h-1l-4-1 1-1-5-5 1-3 10 5 7 3 4 4 3 2h27l5-2 12-3 1-6 1-5 5-9 9-12 2-6 6-5h2l1-4-2-5-5-5-1-7 6-11h2v-2l6-3 1-4-3-10-1-3 1-6 11-4 2-8 3-6 2-2 4-3 1-3 4-3-1 5-3 5-3 2v2h2l1-3 3-1-2 5-3 6-2 8-5 3-7 1v6l1-5 6-1h10l-1-9 3-7 4-3 1-9 4-4 4-3h2v-2l3-1 2-9 7-6z" fill="#ABA99D"/>
<path transform="translate(1032,1311)" d="m0 0 13 1 9 3 7 4 1 6h5l3-1 10 8v5l-4 2-4 4 1 12-2 2-6 2-3 2h-9l-6 3-2-1-1-5 1-3-3-1h-7l-5 4-3 3-6 1h-9l-6 6-7 3-2 5-6 1-3-5-4-3-1-4v-7l2-4 8-6 7-1 5 2h5l3-3v-3l-9-3-5-3h-5v-3l11-5 5 1 3 5h7l6-3 8-6 6-4 1-4-13 1 1-6z" fill="#85847C"/>
<path transform="translate(903,693)" d="m0 0h13l10 1h11l18 2 3 1 11 1 28 6 5 2 7 2 6 2 16 2 6 2 9 2 23 2 15 6 22 5 4 3-2 4-9 3-16 3-28 11-6 3h-2v2l-12 6-10 7h-2v2l-20 11-12 5-11 5-11 2h-17l-13-6-8-3-11-1-23 1-9 2-11 6-11 7-5 2-10 1h-19l-17 1-6 1-1-7 2-4 1 4h8l4-1 15-1h18l12-2 12-7 12-6 11-2h23l14 4 11 4h24l21-7 9-5 9-4 11-6 15-10 13-7 13-4 12-6 9-3 12-1 4-1-1-3-15-3-17-2-8-5h-11l-8 1h-13l-6-4-3-3-15-5-10-2-6-2-22-5-23-3h-31l-6-2-15 1-8 2-23 1-14 1h-12l-22 1-4-1-9 1-17-1h-7v6h-1v-9l9-2 4 1 3-1 14 1h23l12-1h21l22-1z" fill="#3E3D39"/>
<path transform="translate(1085,800)" d="m0 0h1l2 6 1 5-1 5-1 7-1 3-4 1v6l7 6 2 7-5 6-2 2v2l7 1 3 4-1 5-8 6h-6l-3-4-4-1 1 5-2 2-19 3-10-4-2-6-2-1v-2h-2l-4-6-7-2 2-12 2-5 2-7 3-4 4-2 1-5-6-4-5-10 2-4 2 6 1 4 4 1v2l6 2 2 6-2 3 2 2-2 1 4 1-3 2h-3l2 14 6 7 1 3h4v-2l8-3 5-1 3-1-1-6-1-1v-6l3-7 1 2h2l-1-5 4-2v4l-2 7v2l2-1-1-2 2-6 5-5 2-6 1-8-2-8z" fill="#ABA99D"/>
<path transform="translate(1163,772)" d="m0 0 5 2 9 18 1 12-1 11-5 17 2 1-1 5-5-1-4-3-3-1 1-2 1-1-11-6-4-4-2-9v-15l4-6 3-9 6-8z" fill="#85847C"/>
<path transform="translate(679,1049)" d="m0 0 24 4 19 3 26 7 22 4 14 3 32 6 15 4 2 1 18 1 12 3 5 1h22l3 1 42 3 31 3 6 3 1 7-8 6-9 5-2-1 9-6 5-4v-5l-2-2h-10l-3 6-4 1-7-2-2-6-6-2h-11l-3-1-26-1-4-1h-13l-9 3h-9l-7 2-11-1-12-2-6-3 1-8-1-1-12-1-20-5-21-3-35-7-14-4-32-5h-9l-2-1-5 1-6 2-1-3 2-3 10-1z" fill="#3E3D39"/>
<path transform="translate(952,988)" d="m0 0h12l8 2 2 6h7l6 4 3 6v6l-5 6-3 2-6-1-8-2h-6l-4-4-6-2-2-2-1-6v-12z" fill="#ABA99D"/>
<path transform="translate(1335,495)" d="m0 0 9 2 5 4 4 8v11l-6 7-5 2h-11l-8-5-4-8 1-9 6-8 5-3z" fill="#41403B"/>
<path transform="translate(967,1323)" d="m0 0 5 1 3 3v6l-4 6 1 16-3 4-2 7-10 5-5-1-2-3v-8l-2-9 5-5v-5l-2-5 3-5 9-5z" fill="#86857D"/>
<path transform="translate(1334,270)" d="m0 0 4 1-6 12-1 3h-2l-2 7h-2l1 3h-2l5 5 1 4-1 5 1 5-1 5 4 9 3 9 1 4h2v2h7v1h-8l-6-3-8-8-5-11-1-4v-7l4-18 6-14z" fill="#585752"/>
<path transform="translate(752,1073)" d="m0 0 12 1 12 2 6 4 1 5-4 3-13 1-14-3-7-3-2-2 1-4z" fill="#3E3D39"/>
<path transform="translate(1010,1064)" d="m0 0 5 2 3 2v6l4 1v3l2 1-2 4-15 4-3 3-5 1-7-7-1-5 7-3 9-1v-9z" fill="#99978D"/>
<path transform="translate(904,1146)" d="m0 0 3 1-18 6-22 4-52 5-36 4-27 4-21 4-18 2-1 1-12 2-1-5 26-3 11-2 18-2 53-8 36-2 28-3 20-4z" fill="#3E3D39"/>
<path transform="translate(1164,792)" d="m0 0 5 2 1 6h2l1 3v8l-3 7-7 2-5-2-3-7-1-8 8-10z" fill="#9A988E"/>
<path transform="translate(915,993)" d="m0 0 8 1 8 5 2 2 1 8-2 2h-9l-8 3-4-1-5-5 1-3 5-5 2-3-1-2h2z" fill="#86857D"/>
<path transform="translate(1357,403)" d="m0 0 1 2 4-1-6 16-1 14-3 8-3 1-5-4-1-6 4-17 5-12 4 1z" fill="#484743"/>
<path transform="translate(905,896)" d="m0 0 3 1 3 14-4 11-5 6-4-1-3-4-1-10 4-10 5-6z" fill="#ABA99D"/>
<path transform="translate(915,1349)" d="m0 0h13l5 5-2 5-10 11h-6l-3-2-1-3v-8l3-7z" fill="#86857D"/>
<path transform="translate(803,864)" d="m0 0h2v9l-2 7-3 6-5 4-4 1-3-3 3-9 3-6 4-6h3v-2z" fill="#AAA89C"/>
<path transform="translate(1061,573)" d="m0 0h6l6 3v2l3 1 1 2-1 9-6 1-5-3v-2l-4-2-2-5 1-5z" fill="#ABA99D"/>
<path transform="translate(1446,255)" d="m0 0 3 1 8 16 2 8v14l-1 4h-2l-2-6-3-17-4-15z" fill="#595853"/>
<path transform="translate(1290,1260)" d="m0 0 8 3 5 4 2 4-1 5-5-1-7-2-5-5v-7z" fill="#565550"/>
<path transform="translate(885,1060)" d="m0 0 8 1 3 5 2 6-1 2h-7l-5-3-4 3-2-1 2-3-2-2 3-2 1-4h2z" fill="#B3B1A0"/>
<path transform="translate(1429,266)" d="m0 0h1l1 7 4 4-2 5-3 3-1 6 3 1-1 7-4 3h-2l-1 5-3 1v3l-4 2 8-20 3-12z" fill="#5A5953"/>
<path transform="translate(774,1044)" d="m0 0 7 1 14 5 5 2 9 4v2l14 1 2 2 2 6-3-1-2-4-13-2-22-9-15-5z" fill="#AFAD9F"/>
<path transform="translate(1044,1334)" d="m0 0h8l1 4-3 3-2 6-7-1-4-3 1-5 3-3z" fill="#9A988E"/>
<path transform="translate(1357,403)" d="m0 0 1 2 4-1-6 16-1 14-2 6-2-2v-8l2-4-1-1-2 2v-6l1 2h2l-1-3 2-4v-4l1-4-2 1v3l-3-2 2-6 4 1z" fill="#5C5B55"/>
<path transform="translate(1337,1198)" d="m0 0h1v46l-2 34-2 3v-18l2-40z" fill="#848379"/>
<path transform="translate(1011,1122)" d="m0 0h9l1 5-4 4-6 1-7-4 1-4z" fill="#ABA99D"/>
<path transform="translate(940,1021)" d="m0 0 5 1 6 2 8 8-2 2-13-5-5 3v-5-4z" fill="#86857D"/>
<path transform="translate(911,878)" d="m0 0 4 1 1 3v7l-5 4-4-1-1-3 1-5z" fill="#ABA99D"/>
<path transform="translate(791,658)" d="m0 0 3 1 4 10 3 2v2l6 1v1l-7-1-5-5v-2l-7-1-6 3 2-6 2-3z" fill="#ABA99D"/>
<path transform="translate(768,1198)" d="m0 0h10l12 2 18 2 1 2h-14l-15-2-12-3z" fill="#919087"/>
<path transform="translate(1387,233)" d="m0 0 3 1v2l-3 1-2 2-1-2-3 1v2l-7 2-5 3h-3v3h-3v2h-3l-1-3 15-9z" fill="#5A5953"/>
<path transform="translate(951,1115)" d="m0 0 2 1-8 9-24 15-7 5-4-1 18-11 10-7 6-3z" fill="#3E3D39"/>
<path transform="translate(817,606)" d="m0 0h2l-1 6-1 7-6 1 1 4h-2l-2-4 1-5 3-5 5-2z" fill="#9D9B91"/>
<path transform="translate(696,1195)" d="m0 0 1 2 24 2 4 2-13 1-14-1h-5l-1 4v-6z" fill="#403F3B"/>
<path transform="translate(1025,861)" d="m0 0 4 2 3 7-1 4-5-1-3-3 1-8z" fill="#ABA99D"/>
<path transform="translate(1021,666)" d="m0 0h2l-1 4-1 2h-3v2l-9 2-8 7h-2l1-3 4-1 2-6 1-1h10l1-2z" fill="#86857D"/>
<path transform="translate(861,600)" d="m0 0 2 1-1 2 2 6 3 2-2 5-4 2h-6l3-2 2-1-1-5 1-3-1-5z" fill="#ABA99D"/>
<path transform="translate(1068,578)" d="m0 0 5 1 3 5-3 3h-5l-2-7z" fill="#B1AFA0"/>
<path transform="translate(1353,407)" d="m0 0 3 1-1 4-2 3 2 1-2 5v2h-2l-2-4v-9l4 1-1-3z" fill="#3F3E3A"/>
<path transform="translate(1429,266)" d="m0 0h1l1 7 4 4-2 5-5 5z" fill="#595852"/>
<path transform="translate(1395,231)" d="m0 0h19l4 2-5 1-10-1v2l-8-1z" fill="#4C4B46"/>
<path transform="translate(917,1355)" d="m0 0h6l1 5-5 4-4-1z" fill="#9A988E"/>
<path transform="translate(960,1037)" d="m0 0 6 3 1 2 4 2-8 2-3 1-4-1 1-4 2-1 5 2-4-4z" fill="#86857D"/>
<path transform="translate(893,1201)" d="m0 0m-2 0 4 3-5 2h-17l4-2 3 1v-2l9-1z" fill="#ACAA9D"/>
<path transform="translate(1018,817)" d="m0 0 8 1v6l-5 1-3-3-1-4z" fill="#ABA99D"/>
<path transform="translate(1350,421)" d="m0 0 1 2 4 1v10l-2 6-2-2v-8l2-4-1-1-2 2z" fill="#5D5C56"/>
<path transform="translate(1013,890)" d="m0 0 4 2-1 6-4 1-3-2 1-5z" fill="#ABA99D"/>
<path transform="translate(819,599)" d="m0 0 1 3-1 2 2 1v6l-2 2-2 4 1-7v-1l-5 1 2-5z" fill="#ADAB9E"/>
<path transform="translate(1377,249)" d="m0 0 2 2-8 9-4 7-1-4 4-8 2 1v-4z" fill="#605F59"/>
<path transform="translate(1387,233)" d="m0 0 3 1v2l-3 1-2 2-1-2-3 1v2l-4 1-2-2 8-5z" fill="#595852"/>
<path transform="translate(841,571)" d="m0 0 3 1-2 2-1 6-4 1-2-3h2l-1-5z" fill="#ABA99D"/>
<path transform="translate(1416,313)" d="m0 0h1v6l-3 1 1 5-3 4-4-1z" fill="#5C5B56"/>
<path transform="translate(807,1057)" d="m0 0 16 2 2 2 2 6-3-1-2-4-13-2-2-1z" fill="#ABA99D"/>
<path transform="translate(859,989)" d="m0 0 2 1v2l-5 3-9-1v-2h-7v-1h14z" fill="#86857D"/>
<path transform="translate(1181,516)" d="m0 0 7 1 17 5-1 2h-5l-5-3-8-1z" fill="#8E8D84"/>
<path transform="translate(1160,757)" d="m0 0h1l1 7 4 3-9 1-3-6 5-1z" fill="#85847C"/>
<path transform="translate(921 1e3)" d="m0 0 3 1-1 5-2 2-5-1 3-6z" fill="#9A988E"/>
<path transform="translate(807,619)" d="m0 0 4 4v-3l4-1-2 6-1 2h-5v-3-2z" fill="#ABA99C"/>
<path transform="translate(1024,589)" d="m0 0 1 2 5 2 6 5 1 4-3 7-1-4 1-6-10-7z" fill="#B6B4A2"/>
<path transform="translate(1334,270)" d="m0 0 4 1-4 8h-3v2h-2l2-6z" fill="#54534E"/>
<path transform="translate(1348,432)" d="m0 0 2 3-1 3h-2l2 4-4-2-2-4v-3h3l1 3z" fill="#67665F"/>
<path transform="translate(1024,892)" d="m0 0h4l1 6-4 1-2-2z" fill="#86857D"/>
<path transform="translate(1206,562)" d="m0 0 4 1 3 3v3l-4 1-2-1-2-6z" fill="#706F66"/>
<path transform="translate(837,1060)" d="m0 0 2 1-3 4-2 5-7-1v-2l5-1 3-5z" fill="#ABA99D"/>
<path transform="translate(883,1062)" d="m0 0h1v6h2l-2 4-5 2 2-4-2-2 3-2z" fill="#ABA99D"/>
<path transform="translate(843,1055)" d="m0 0h6l4 3-1 4-1-4-5-1-7 3 1-3z" fill="#ABA99D"/>
<path transform="translate(1058,772)" d="m0 0h9l4 4 1 4-3-1-3-3-8-3z" fill="#ABA99D"/>
<path transform="translate(1395,231)" d="m0 0 15 1v1h-7v2l-8-1z" fill="#595852"/>
<path transform="translate(899,985)" d="m0 0h5l2 4-4 1-4-2z" fill="#86857D"/>
</svg>
